<?xml version="1.0" standalone="no"?>
<!DOCTYPE svg PUBLIC "-//W3C//DTD SVG 20010904//EN"
 "http://www.w3.org/TR/2001/REC-SVG-20010904/DTD/svg10.dtd">
<svg version="1.0" xmlns="http://www.w3.org/2000/svg"
 width="225.000000pt" height="225.000000pt" viewBox="0 0 225.000000 225.000000"
 preserveAspectRatio="xMidYMid meet">
<metadata>
Created by potrace 1.15, written by Peter Selinger 2001-2017
</metadata>
<g transform="translate(0.000000,225.000000) scale(0.100000,-0.100000)"
fill="#f5f6fa" stroke="none">
<path d="M156 2235 c-75 -27 -126 -81 -146 -156 -7 -25 -9 -362 -8 -976 3
-894 4 -940 22 -973 26 -49 55 -79 101 -103 l40 -22 960 0 960 0 40 22 c46 24
75 54 101 103 18 33 19 77 19 995 l0 960 -22 40 c-24 46 -54 75 -103 101 -33
18 -79 19 -980 21 -793 2 -951 0 -984 -12z m410 -300 c56 -16 105 -61 128
-117 67 -159 -103 -329 -262 -262 -131 54 -168 220 -73 328 19 22 66 47 106
57 44 10 47 10 101 -6z m1122 -604 c80 -41 142 -102 184 -183 l33 -63 3 -372
3 -373 -171 0 -170 0 0 315 c0 352 -2 362 -64 410 -55 42 -121 45 -181 11 -83
-49 -85 -57 -85 -421 l0 -315 -170 0 -170 0 0 505 0 505 170 0 170 0 0 -62 0
-62 43 40 c85 81 149 106 262 101 66 -3 91 -9 143 -36z m-1008 -486 l0 -505
-170 0 -170 0 0 505 0 505 170 0 170 0 0 -505z"/>
</g>
</svg>
