<?xml version="1.0" standalone="no"?>
<!DOCTYPE svg PUBLIC "-//W3C//DTD SVG 20010904//EN"
 "http://www.w3.org/TR/2001/REC-SVG-20010904/DTD/svg10.dtd">
<svg version="1.0" xmlns="http://www.w3.org/2000/svg"
 width="293.000000pt" height="245.000000pt" viewBox="0 0 293.000000 245.000000"
 preserveAspectRatio="xMidYMid meet">
<metadata>
Created by potrace 1.15, written by Peter Selinger 2001-2017
</metadata>
<g transform="translate(0.000000,245.000000) scale(0.100000,-0.100000)"
fill="#f5f6fa" stroke="none">
<path d="M755 2270 c-11 -4 -167 -156 -347 -337 -328 -329 -328 -329 -328
-371 0 -24 6 -55 14 -70 8 -15 306 -318 663 -674 691 -689 673 -673 746 -649
22 8 227 206 690 669 l657 657 0 55 0 55 -338 337 -337 338 -700 -1 c-385 0
-709 -4 -720 -9z m548 -558 l174 -173 77 75 c43 42 82 76 87 76 5 0 9 -70 9
-164 l0 -165 -85 -88 -85 -88 -265 265 -265 266 0 76 c0 94 6 100 108 96 l72
-3 173 -173z m665 170 c9 -7 12 -95 10 -408 l-3 -399 -140 0 -140 0 -3 345 -2
345 50 53 c28 29 60 57 73 62 28 11 138 12 155 2z m-723 -665 l0 -142 -145 0
-145 0 -3 264 c-2 193 1 267 10 278 10 12 34 -8 147 -121 l136 -136 0 -143z"/>
</g>
</svg>
